<svg width="598" height="507" viewBox="0 0 598 507" fill="none" xmlns="http://www.w3.org/2000/svg">
<g clip-path="url(#clip0_15_133)">
<path fill-rule="evenodd" clip-rule="evenodd" d="M58.8054 467.875L200.376 56.5393L572.52 225.234L57.1134 463.141" fill="#FFDD62"/>
<path d="M57.9035 464.318C95.9014 352.92 136.353 237.604 200.466 59.946M59.215 464.191C113.747 313.696 166.041 159.972 199.742 59.4064M200.362 61.0427C286.384 103.608 372.953 142.927 572.609 228.358M199.969 58.9221C344.585 122.182 485.338 186.829 575.142 227.388M573.409 229.327C371.143 327.452 165.571 420.131 61.3243 463.363M573.67 228.048C437.494 287.02 302.347 349.143 60.6714 462.984" stroke="#333333" stroke-width="8" stroke-linecap="round"/>
</g>
<defs>
<clipPath id="clip0_15_133">
<rect width="598" height="507" fill="white"/>
</clipPath>
</defs>
</svg>
