<?xml version="1.0" standalone="no"?>
<!DOCTYPE svg PUBLIC "-//W3C//DTD SVG 20010904//EN"
 "http://www.w3.org/TR/2001/REC-SVG-20010904/DTD/svg10.dtd">
<svg version="1.0" xmlns="http://www.w3.org/2000/svg"
 width="300.000000pt" height="300.000000pt" viewBox="0 0 300.000000 300.000000"
 preserveAspectRatio="xMidYMid meet">
<metadata>
Created by potrace 1.14, written by Peter Selinger 2001-2017
</metadata>
<g transform="translate(0.000000,300.000000) scale(0.100000,-0.100000)"
fill="#000000" stroke="none">
<path d="M955 2453 c-4 -10 -27 -76 -51 -146 -24 -70 -103 -293 -175 -495
-136 -381 -206 -578 -289 -817 -185 -537 -197 -575 -186 -584 11 -9 198 58
221 80 5 5 15 9 21 9 11 0 540 232 732 321 35 16 65 29 67 29 3 0 41 18 85 39
44 22 83 40 85 40 5 1 43 18 200 91 36 17 94 44 130 60 139 64 194 90 300 140
61 29 135 63 165 76 30 14 69 32 85 41 51 28 58 31 135 66 246 112 391 189
388 204 -2 11 -58 42 -153 84 -83 37 -179 81 -215 98 -36 17 -144 66 -240 109
-96 44 -200 91 -230 105 -342 156 -1047 467 -1059 467 -5 0 -12 -8 -16 -17z"/>
</g>
</svg>
